<?xml version="1.0" encoding="UTF-8"?><svg id="Layer_1" xmlns="http://www.w3.org/2000/svg" viewBox="0 0 108.86 82.89"><path d="M0,15.71l6.96-7.73L46.87,0l7.55,6.8-22.54,25.03,5.53,4.98-6.26,6.96-5.53-4.98-8.67,9.63-8.03-7.23,8.67-9.63L0,15.71ZM36.69,9.99l-23.77,4.76,10.94,9.85,13.01-14.45-.18-.16Z"/><path d="M55.5,24.73c2.47-1.47,5.03-2.4,7.67-2.78,2.64-.38,5.31-.14,8,.74,2.69.88,5.28,2.44,7.78,4.69,1.9,1.71,3.45,3.64,4.64,5.79,1.19,2.15,1.94,4.36,2.25,6.65.31,2.29.12,4.59-.57,6.91-.69,2.32-1.95,4.49-3.77,6.51s-3.85,3.6-5.88,4.5c-2.03.9-4.13,1.43-6.29,1.6-2.16.17-4.38.1-6.64-.22-2.26-.32-4.53-.65-6.79-1-2.27-.35-4.55-.6-6.86-.74-2.31-.14-4.62.03-6.94.53l19.68,17.72-6.53,7.25-30.56-27.51c2.18-2.42,4.41-4.21,6.71-5.37,2.3-1.16,4.68-1.91,7.13-2.24,2.46-.34,5.02-.38,7.7-.12,2.68.26,5.46.57,8.35.95,1.48.19,3.03.42,4.65.69,1.62.27,3.21.4,4.78.37,1.57-.03,3.08-.27,4.55-.75,1.47-.47,2.77-1.34,3.91-2.61,1.82-2.02,2.65-4.12,2.5-6.31-.15-2.18-1.14-4.09-2.96-5.74-1.23-1.11-2.53-1.76-3.9-1.95-1.37-.19-2.73-.05-4.09.41-1.35.47-2.65,1.17-3.88,2.1-1.24.93-2.35,1.96-3.35,3.06l-8.09-7.28c2.06-2.45,4.33-4.41,6.8-5.88Z"/><path d="M98.68,55.41h0c.56,0,1.38.14,2.13.82.85.77,1.02,1.71,1.05,2.2.03.49-.05,1.45-.81,2.3-.83.92-1.84,1.06-2.37,1.06s-1.38-.14-2.13-.82c-1.31-1.18-1.41-3.2-.24-4.5.83-.92,1.84-1.06,2.37-1.06M98.68,48.41c-2.79,0-5.56,1.14-7.58,3.37-3.77,4.18-3.43,10.62.75,14.39,1.95,1.75,4.39,2.62,6.81,2.62,2.79,0,5.56-1.14,7.58-3.37,3.77-4.18,3.43-10.62-.75-14.39-1.95-1.75-4.39-2.62-6.81-2.62h0Z"/></svg>